<svg version="1.1" id="Layer_1" xmlns="http://www.w3.org/2000/svg" xmlns:xlink="http://www.w3.org/1999/xlink" x="0px" y="0px"
	 width="100%" viewBox="0 0 96 96" enable-background="new 0 0 96 96" xml:space="preserve">
<path fill="#FFCB7F" opacity="1.000000" stroke="none" 
	d="
M24.000000,97.000000 
	C16.333216,97.000000 8.666430,97.000000 1.000000,97.000000 
	C1.000000,94.928581 1.000000,92.962189 1.219675,90.386330 
	C1.702734,89.566368 1.895364,89.303932 2.008322,88.995346 
	C1.999402,89.001122 1.984296,89.016098 2.203676,88.896629 
	C2.698715,88.572029 2.895854,88.308220 3.007101,87.992706 
	C2.999730,87.999680 2.985801,88.014442 3.206203,87.897476 
	C3.704511,87.577339 3.899757,87.313080 4.005980,86.993408 
	C3.999620,86.999062 3.985610,87.008682 4.304247,86.978378 
	C5.172496,86.624748 5.722109,86.301437 6.443578,85.785187 
	C7.074835,84.861717 7.534235,84.131180 8.347379,83.282852 
	C12.700213,80.039406 16.773714,77.003685 20.682743,73.769188 
	C28.559166,67.251907 36.346077,60.626438 44.148205,54.369816 
	C44.647514,55.817097 45.168537,56.940166 45.819580,58.427334 
	C49.256207,59.504047 52.562813,60.216660 56.260643,60.968262 
	C57.436886,61.008545 58.221905,61.009838 59.002899,61.005013 
	C58.998878,60.998898 58.986794,60.987461 58.847374,61.290535 
	C50.585915,69.770203 42.419739,77.903847 34.383354,86.163765 
	C32.970043,87.616386 32.100262,89.597816 30.813349,91.549881 
	C29.853733,92.501923 29.060238,93.239105 27.934263,93.991013 
	C27.062996,94.339973 26.524206,94.674217 25.992191,95.004044 
	C25.998966,94.999619 26.008806,94.986816 25.741302,95.108475 
	C24.982533,95.820084 24.491266,96.410042 24.000000,97.000000 
z"/>
<path fill="#FFCB7F" opacity="1.000000" stroke="none" 
	d="
M7.993637,83.400650 
	C7.534235,84.131180 7.074835,84.861717 6.108035,85.797508 
	C5.062294,86.338074 4.523952,86.673378 3.985610,87.008682 
	C3.985610,87.008682 3.999620,86.999062 3.788555,87.113693 
	C3.306394,87.434761 3.109164,87.696800 2.985801,88.014442 
	C2.985801,88.014442 2.999730,87.999680 2.788675,88.113174 
	C2.305314,88.433792 2.107539,88.696938 1.984296,89.016098 
	C1.984296,89.016098 1.999402,89.001122 1.753875,88.988007 
	C1.338899,88.983269 1.169449,88.991631 1.000000,89.000000 
	C1.000000,80.645767 1.000000,72.291534 1.000000,63.468651 
	C4.073128,61.090561 7.303581,59.390522 10.184899,57.225780 
	C15.340868,53.352081 20.286514,49.198441 25.698502,45.411713 
	C26.998695,47.753197 27.920473,49.844795 29.186155,52.181992 
	C32.335609,52.510296 35.141163,52.593002 37.817390,53.001369 
	C33.460842,57.549965 29.207872,61.747505 25.012680,66.002022 
	C19.316511,71.778732 13.664556,77.599037 7.993637,83.400650 
z"/>
<path fill="#FFCB7F" opacity="1.000000" stroke="none" 
	d="
M28.266743,93.976295 
	C29.060238,93.239105 29.853733,92.501923 31.137703,91.394302 
	C39.111851,84.721207 46.595520,78.418541 54.078857,72.442780 
	C54.639404,74.153358 55.200279,75.537041 55.979370,77.206924 
	C57.446114,78.133064 58.694637,78.772995 60.246933,79.591934 
	C62.469803,80.214287 64.388901,80.657646 67.030609,81.267944 
	C61.902721,87.017670 57.451359,92.008835 53.000000,97.000000 
	C44.312435,97.000000 35.624874,97.000000 26.473459,96.664360 
	C26.009340,95.881416 26.009073,95.434120 26.008806,94.986816 
	C26.008806,94.986816 25.998966,94.999619 26.309847,94.972672 
	C27.169399,94.622589 27.718073,94.299438 28.266743,93.976295 
z"/>
<path fill="#536C77" opacity="1.000000" stroke="none" 
	d="
M84.041267,18.119537 
	C79.160507,15.394158 77.841621,11.481359 79.805077,6.236053 
	C80.292618,4.933602 79.987793,3.334550 80.023590,1.435917 
	C83.030594,1.000000 86.061188,1.000000 89.546066,1.436629 
	C89.350731,7.540253 88.701126,13.207248 87.705772,18.889408 
	C86.253777,18.642893 85.147522,18.381216 84.041267,18.119537 
z"/>
<path fill="#F3A35D" opacity="1.000000" stroke="none" 
	d="
M53.428459,97.000000 
	C57.451359,92.008835 61.902721,87.017670 67.030609,81.267944 
	C64.388901,80.657646 62.469803,80.214287 60.656181,79.529305 
	C63.561348,77.860252 66.530701,76.681015 69.103706,74.922005 
	C70.954712,73.656586 72.277016,71.617798 73.835152,69.923981 
	C76.077690,74.663597 75.690796,78.921158 71.807678,82.761208 
	C67.252121,87.266243 62.840221,91.916542 58.683006,96.751915 
	C57.285641,97.000000 55.571285,97.000000 53.428459,97.000000 
z"/>
<path fill="#384850" opacity="1.000000" stroke="none" 
	d="
M88.051514,18.874243 
	C88.701126,13.207248 89.350731,7.540253 90.000168,1.436629 
	C92.293182,1.000000 94.586372,1.000000 97.000000,1.000000 
	C97.000000,7.020049 97.000000,13.040648 97.000000,19.530624 
	C95.308662,20.006422 93.617332,20.012844 91.241180,19.828960 
	C89.687813,19.467960 88.819252,19.297266 87.960541,19.057350 
	C87.970375,18.988129 88.051514,18.874243 88.051514,18.874243 
z"/>
<path fill="#F3A45D" opacity="1.000000" stroke="none" 
	d="
M25.741302,95.108475 
	C26.009073,95.434120 26.009340,95.881416 26.004803,96.664360 
	C25.555555,97.000000 25.111111,97.000000 24.333334,97.000000 
	C24.491266,96.410042 24.982533,95.820084 25.741302,95.108475 
z"/>
<path fill="#F3A45D" opacity="1.000000" stroke="none" 
	d="
M1.000000,89.250000 
	C1.169449,88.991631 1.338899,88.983269 1.762795,88.982231 
	C1.895364,89.303932 1.702734,89.566368 1.219675,89.888428 
	C1.000000,90.000000 1.000000,89.500000 1.000000,89.250000 
z"/>
<path fill="#F50558" opacity="1.000000" stroke="none" 
	d="
M55.869415,60.929276 
	C52.562813,60.216660 49.256207,59.504047 46.164032,58.319420 
	C54.871078,50.444103 63.363697,43.040802 71.856316,35.637497 
	C75.248711,40.696411 75.062561,43.393620 71.035454,47.439373 
	C69.772781,48.707901 68.501762,49.968121 66.735023,51.653671 
	C62.780125,55.026562 59.324772,57.977921 55.869415,60.929276 
z"/>
<path fill="#FE77A3" opacity="1.000000" stroke="none" 
	d="
M28.842251,51.936390 
	C27.920473,49.844795 26.998695,47.753197 26.021935,45.284859 
	C25.966948,44.908119 25.990732,44.978531 26.185223,44.901649 
	C26.657690,44.619106 26.826439,44.345963 26.885960,44.005333 
	C33.085915,39.311226 39.172825,34.453072 45.569801,30.044868 
	C47.063591,29.015486 49.609558,29.512980 51.749100,29.951111 
	C44.165264,37.708302 36.503757,44.822346 28.842251,51.936390 
z"/>
<path fill="#F50559" opacity="1.000000" stroke="none" 
	d="
M29.186157,52.181992 
	C36.503757,44.822346 44.165264,37.708302 51.967110,30.284548 
	C55.279369,33.507423 54.398819,36.545723 51.158764,39.525120 
	C49.649002,40.913429 48.503288,42.697639 46.670616,44.629196 
	C43.414684,47.529232 40.680698,50.102467 37.946712,52.675705 
	C35.141163,52.593002 32.335609,52.510296 29.186157,52.181992 
z"/>
<path fill="#F3A45D" opacity="1.000000" stroke="none" 
	d="
M56.260643,60.968262 
	C59.324772,57.977921 62.780125,55.026562 66.538925,51.920586 
	C67.224388,53.239258 67.606392,54.712551 67.988907,56.543922 
	C67.989410,56.902004 68.054100,56.942390 67.739082,57.032135 
	C67.313049,57.740688 67.202034,58.359497 66.923935,59.273155 
	C62.530972,63.750629 58.305080,67.933258 54.079189,72.115883 
	C46.595520,78.418541 39.111851,84.721207 31.303825,91.179459 
	C32.100262,89.597816 32.970043,87.616386 34.383354,86.163765 
	C42.419739,77.903847 50.585915,69.770203 59.037025,61.276634 
	C59.559013,60.830814 59.751926,60.701973 59.944839,60.573128 
	C59.836765,60.533077 59.681732,60.426880 59.628788,60.464466 
	C59.404953,60.623379 59.211491,60.825077 59.006924,61.011131 
	C58.221905,61.009838 57.436886,61.008545 56.260643,60.968262 
z"/>
<path fill="#F3A45D" opacity="1.000000" stroke="none" 
	d="
M37.817390,53.001369 
	C40.680698,50.102467 43.414684,47.529232 46.490074,44.916565 
	C46.891621,45.983925 46.951767,47.090710 46.908150,48.896111 
	C45.926228,51.078342 45.048069,52.561970 44.169914,54.045601 
	C36.346077,60.626438 28.559166,67.251907 20.682743,73.769188 
	C16.773714,77.003685 12.700213,80.039406 8.347380,83.282852 
	C13.664556,77.599037 19.316511,71.778732 25.012680,66.002022 
	C29.207872,61.747505 33.460842,57.549965 37.817390,53.001369 
z"/>
<path fill="#FE75A2" opacity="1.000000" stroke="none" 
	d="
M44.148201,54.369812 
	C45.048069,52.561970 45.926228,51.078342 46.965141,49.307602 
	C52.351933,45.267029 57.426693,41.271355 62.872753,37.870216 
	C65.312729,36.346420 68.496742,36.014011 71.599716,35.389229 
	C63.363697,43.040802 54.871078,50.444103 46.034008,57.955318 
	C45.168537,56.940166 44.647514,55.817097 44.148201,54.369812 
z"/>
<path fill="#F00258" opacity="1.000000" stroke="none" 
	d="
M84.027367,18.522041 
	C85.147522,18.381216 86.253777,18.642893 87.705772,18.889408 
	C88.051514,18.874243 87.970375,18.988129 87.973526,19.452679 
	C85.229683,33.803539 80.608589,46.976555 73.015007,58.701981 
	C72.617653,57.526985 72.289909,56.694736 71.962166,55.862488 
	C72.160782,51.366638 74.496910,48.281269 77.443733,44.897388 
	C79.791862,42.201012 80.024437,37.570499 80.934296,33.736439 
	C82.098198,28.831774 82.999176,23.864716 84.027367,18.522041 
z"/>
<path fill="#FE77A3" opacity="1.000000" stroke="none" 
	d="
M71.561157,55.948570 
	C72.289909,56.694736 72.617653,57.526985 72.965530,59.004517 
	C72.950363,60.057713 72.915062,60.465630 72.592819,61.042904 
	C66.790970,66.448418 61.276062,71.684570 55.761158,76.920715 
	C55.200279,75.537041 54.639404,74.153358 54.078857,72.442780 
	C58.305080,67.933258 62.530972,63.750629 67.298882,59.144707 
	C67.911964,58.128407 67.983032,57.535400 68.054100,56.942390 
	C68.054100,56.942390 67.989410,56.902004 67.965698,56.930862 
	C69.014709,56.651363 70.087433,56.343006 71.561157,55.948570 
z"/>
<path fill="#FFCB7F" opacity="1.000000" stroke="none" 
	d="
M26.633945,44.059170 
	C26.826439,44.345963 26.657690,44.619106 26.149693,44.912525 
	C26.073753,44.704521 26.227840,44.408760 26.633945,44.059170 
z"/>
<path fill="#F50458" opacity="1.000000" stroke="none" 
	d="
M55.979370,77.206924 
	C61.276062,71.684570 66.790970,66.448418 72.964317,61.063789 
	C75.693092,60.284180 77.763420,59.653046 79.833755,59.021912 
	C80.883041,64.074020 76.885422,66.351082 74.000305,69.627327 
	C72.277016,71.617798 70.954712,73.656586 69.103706,74.922005 
	C66.530701,76.681015 63.561348,77.860252 60.352409,79.350304 
	C58.694637,78.772995 57.446114,78.133064 55.979370,77.206924 
z"/>
<path fill="#C61162" opacity="1.000000" stroke="none" 
	d="
M79.997963,58.696285 
	C77.763420,59.653046 75.693092,60.284180 73.251251,60.894432 
	C72.915062,60.465630 72.950363,60.057713 73.035141,59.347260 
	C80.608589,46.976555 85.229683,33.803539 87.963684,19.521900 
	C88.819252,19.297266 89.687813,19.467960 90.819168,19.849327 
	C90.044785,23.954842 88.905548,27.825977 87.993973,31.750000 
	C86.575157,37.857487 85.509796,44.053955 83.894722,50.105988 
	C83.125702,52.987682 81.435234,55.623474 79.997963,58.696285 
z"/>
<path fill="#F3A45D" opacity="1.000000" stroke="none" 
	d="
M4.304247,86.978378 
	C4.523952,86.673378 5.062294,86.338074 5.936178,85.990448 
	C5.722109,86.301437 5.172496,86.624748 4.304247,86.978378 
z"/>
<path fill="#F3A45D" opacity="1.000000" stroke="none" 
	d="
M27.934265,93.991013 
	C27.718073,94.299438 27.169399,94.622589 26.303074,94.977097 
	C26.524206,94.674217 27.062996,94.339973 27.934265,93.991013 
z"/>
<path fill="#F3A45D" opacity="1.000000" stroke="none" 
	d="
M3.206203,87.897476 
	C3.109164,87.696800 3.306394,87.434761 3.794916,87.108032 
	C3.899757,87.313080 3.704511,87.577339 3.206203,87.897476 
z"/>
<path fill="#F3A45D" opacity="1.000000" stroke="none" 
	d="
M2.203676,88.896629 
	C2.107539,88.696938 2.305314,88.433792 2.796046,88.106201 
	C2.895854,88.308220 2.698715,88.572029 2.203676,88.896629 
z"/>
<path fill="#FFCB7F" opacity="1.000000" stroke="none" 
	d="
M59.002899,61.005013 
	C59.211491,60.825077 59.404953,60.623379 59.628788,60.464466 
	C59.681732,60.426880 59.836765,60.533077 59.944839,60.573128 
	C59.751926,60.701973 59.559013,60.830814 59.176445,60.973557 
	C58.986794,60.987461 58.998878,60.998898 59.002899,61.005013 
z"/>
<path fill="#000000" opacity="1.000000" stroke="none" 
	d="
M67.739082,57.032135 
	C67.983032,57.535400 67.911964,58.128407 67.465958,58.849861 
	C67.202034,58.359497 67.313049,57.740688 67.739082,57.032135 
z"/>
</svg>